# xmcd
#
# Track frame offsets:
#	150
#	11300
#	24152
#	37602
#	48920
#	59132
#	70782
#	81912
#	91852
#	100887
#	112115
#	124172
#
# Disc length: 1763 seconds
#
# Revision: 1
# Processed by: cddbd v1.4PL0 Copyright (c) Steve Scherf et al.
# Submitted via: audiograbber 1.81.02
#
DISCID=8e06e10c
DTITLE=Buck Owens -  Together Again - My Heart Skips A Beat
DYEAR=1900
DGENRE=
TTITLE0=My Heart Skips A Beat
TTITLE1=Close Up The Honky Tonks
TTITLE2=I Don't Hear You
TTITLE3=Save The Last Dance For Me
TTITLE4=Over And Over Again
TTITLE5=Truck Drivin' Man
TTITLE6=Together Again
TTITLE7=A-11
TTITLE8=Ain't It Amazin' Gracie
TTITLE9=Getting Used To Loving You
TTITLE10=Storm Of Love
TTITLE11=Hello Trouble
EXTD=
EXTT0=
EXTT1=
EXTT2=
EXTT3=
EXTT4=
EXTT5=
EXTT6=
EXTT7=
EXTT8=
EXTT9=
EXTT10=
EXTT11=
PLAYORDER=
